<svg width="88" height="44" viewBox="0 0 88 44" fill="none" xmlns="http://www.w3.org/2000/svg">
<rect width="87.8576" height="44" rx="4" fill="#FFBE2E"/>
<path fill-rule="evenodd" clip-rule="evenodd" d="M13.607 8.42345C13.7414 8.33381 13.9165 8.33381 14.0509 8.42345L14.1874 8.51446C15.6814 9.51089 16.6289 11.4497 16.6289 13.3618C16.6289 13.8579 16.5651 14.3559 16.4445 14.8387C16.9663 14.5707 17.5356 14.3823 18.1365 14.2895C18.2784 14.2676 18.4221 14.251 18.5673 14.24C18.7095 14.2291 18.8531 14.2236 18.998 14.2236C19.0465 14.2236 19.0948 14.2224 19.143 14.2212C19.2286 14.2191 19.3138 14.2169 19.3984 14.2216C19.4187 14.2228 19.4389 14.2228 19.4592 14.2216C19.5438 14.2169 19.629 14.2191 19.7146 14.2212C19.7628 14.2224 19.8111 14.2236 19.8596 14.2236C20.0045 14.2236 20.1481 14.2291 20.2903 14.24C20.4355 14.251 20.5792 14.2676 20.7211 14.2895C21.3219 14.3823 21.8913 14.5707 22.4131 14.8387C22.2925 14.3559 22.2287 13.8579 22.2287 13.3618C22.2287 11.4497 23.1762 9.51089 24.6702 8.51446L24.8067 8.42345C24.9411 8.33381 25.1162 8.33381 25.2506 8.42345L25.387 8.51446C26.881 9.51089 27.8285 11.4497 27.8285 13.3618C27.8285 13.8579 27.7648 14.3559 27.6442 14.8387C28.166 14.5707 28.7353 14.3823 29.3362 14.2895C29.4781 14.2676 29.6218 14.251 29.767 14.24C29.9091 14.2291 30.0528 14.2236 30.1977 14.2236C30.2462 14.2236 30.2945 14.2224 30.3427 14.2212C30.5039 14.2172 30.6285 14.3483 30.6285 14.5096V24.9973C30.6285 27.6796 28.7441 29.9217 26.2275 30.4709C26.0347 30.5129 25.8901 30.6793 25.8901 30.8766V35.3709C25.8901 35.5918 25.7111 35.7709 25.4901 35.7709H24.5671C24.3462 35.7709 24.1671 35.5918 24.1671 35.3709V30.5336C21.4834 30.1191 19.4288 27.7982 19.4288 24.9973C19.4288 27.7982 17.3742 30.1191 14.6905 30.5336V35.3709C14.6905 35.5918 14.5114 35.7709 14.2905 35.7709H13.3675C13.1465 35.7709 12.9675 35.5918 12.9675 35.3709V30.8766C12.9675 30.6793 12.8229 30.5129 12.6301 30.4709C10.1135 29.9217 8.22913 27.6796 8.22913 24.9973V14.5096C8.22913 14.3483 8.35367 14.2172 8.51493 14.2212C8.5631 14.2224 8.61142 14.2236 8.65989 14.2236C8.80482 14.2236 8.94848 14.2291 9.09064 14.24C9.23585 14.251 9.3795 14.2676 9.5214 14.2895C10.1223 14.3823 10.6916 14.5707 11.2134 14.8387C11.0928 14.3559 11.029 13.8579 11.029 13.3618C11.029 11.4497 11.9766 9.51089 13.4706 8.51446L13.607 8.42345ZM15.3366 13.3618C15.3366 14.6765 14.768 15.9717 13.9199 16.7735C13.8953 16.7968 13.8628 16.8093 13.829 16.8093C13.7952 16.8093 13.7626 16.7968 13.738 16.7735C12.8899 15.9717 12.3213 14.6765 12.3213 13.3618C12.3213 12.1327 12.8182 10.9208 13.5757 10.1131C13.7138 9.96583 13.9442 9.96583 14.0822 10.1131C14.8398 10.9208 15.3366 12.1327 15.3366 13.3618ZM14.6905 21.9147V24.911C16.6567 24.5118 18.1365 22.7727 18.1365 20.6878V19.9583C17.2831 20.9849 16.0699 21.7017 14.6905 21.9147ZM12.9675 24.911V21.9147C11.588 21.7017 10.3748 20.9849 9.5214 19.9583V20.6878C9.5214 22.7727 11.0013 24.5118 12.9675 24.911ZM12.9675 26.2242V29.2205C11.0013 28.8212 9.5214 27.0821 9.5214 24.9973V24.2677C10.3748 25.2944 11.588 26.0111 12.9675 26.2242ZM14.6905 29.2205V26.2242C16.0699 26.0111 17.2831 25.2944 18.1365 24.2677V24.9973C18.1365 27.0821 16.6567 28.8212 14.6905 29.2205ZM17.5603 18.5331C17.6406 18.3941 17.7134 18.2503 17.7781 18.1021C17.9539 17.6995 18.07 17.2648 18.1153 16.8093C18.1293 16.6676 18.1365 16.5238 18.1365 16.3783V15.6026C16.1703 16.0019 14.6905 17.741 14.6905 19.8259V20.6016C15.3272 20.4723 15.9129 20.2025 16.4139 19.8259C16.8775 19.4775 17.2685 19.0376 17.5603 18.5331ZM11.2441 19.8259C10.7805 19.4775 10.3894 19.0376 10.0977 18.5331C10.0174 18.3941 9.94456 18.2503 9.87984 18.1021C9.70401 17.6995 9.58788 17.2648 9.54267 16.8093C9.5286 16.6676 9.5214 16.5238 9.5214 16.3784L9.5214 15.6026C11.4876 16.0019 12.9675 17.741 12.9675 19.8259V20.6016C12.3307 20.4723 11.745 20.2025 11.2441 19.8259ZM26.5363 13.3618C26.5363 14.6765 25.9677 15.9717 25.1196 16.7735C25.095 16.7968 25.0624 16.8093 25.0286 16.8093C24.9948 16.8093 24.9623 16.7968 24.9377 16.7735C24.0896 15.9717 23.521 14.6765 23.521 13.3618C23.521 12.1327 24.0178 10.9208 24.7754 10.1131C24.9134 9.96583 25.1438 9.96583 25.2819 10.1131C26.0394 10.9208 26.5363 12.1327 26.5363 13.3618ZM25.8901 21.9147V24.911C27.8563 24.5118 29.3362 22.7727 29.3362 20.6878V19.9583C28.4828 20.9849 27.2696 21.7017 25.8901 21.9147ZM24.1671 24.911L24.1671 21.9147C22.7877 21.7017 21.5745 20.9849 20.7211 19.9583V20.6878C20.7211 22.7727 22.2009 24.5118 24.1671 24.911ZM24.1671 26.2242V29.2205C22.2009 28.8212 20.7211 27.0821 20.7211 24.9973V24.2677C21.5745 25.2944 22.7877 26.0111 24.1671 26.2242ZM25.8901 29.2205V26.2242C27.2696 26.0111 28.4828 25.2944 29.3362 24.2677V24.9973C29.3362 27.0821 27.8563 28.8212 25.8901 29.2205ZM28.7599 18.5331C28.8403 18.3941 28.9131 18.2503 28.9778 18.1021C29.1536 17.6995 29.2697 17.2648 29.3149 16.8093C29.329 16.6676 29.3362 16.5238 29.3362 16.3783V15.6026C27.37 16.0019 25.8901 17.741 25.8901 19.8259V20.6016C26.5269 20.4723 27.1126 20.2025 27.6135 19.8259C28.0771 19.4775 28.4682 19.0376 28.7599 18.5331ZM22.4437 19.8259C21.9801 19.4775 21.5891 19.0376 21.2974 18.5331C21.217 18.3941 21.1442 18.2503 21.0795 18.1021C20.9037 17.6995 20.7875 17.2648 20.7423 16.8093C20.7283 16.6676 20.7211 16.5238 20.7211 16.3784V15.6026C22.6872 16.0019 24.1671 17.741 24.1671 19.8259V20.6016C23.5304 20.4723 22.9447 20.2025 22.4437 19.8259Z" fill="#5C410A"/>
<path fill-rule="evenodd" clip-rule="evenodd" d="M13.607 8.14803C13.7414 8.0584 13.9165 8.0584 14.0509 8.14803L14.3145 8.32384C15.8801 9.36804 16.858 11.3831 16.858 13.3618C16.858 13.4795 16.8546 13.5972 16.8477 13.7148C16.8295 14.03 17.1479 14.2853 17.4524 14.2018C17.6642 14.1437 17.8808 14.0972 18.1015 14.0631C18.2493 14.0403 18.3988 14.023 18.5499 14.0115C18.6978 14.0002 18.8473 13.9945 18.998 13.9945C19.0432 13.9945 19.0886 13.9934 19.1373 13.9922L19.1421 13.992C19.2298 13.9898 19.3285 13.9874 19.4288 13.9939C19.5291 13.9874 19.6278 13.9898 19.7155 13.992L19.7203 13.9922C19.769 13.9934 19.8144 13.9945 19.8596 13.9945C20.0103 13.9945 20.1598 14.0002 20.3077 14.0115C20.4588 14.023 20.6083 14.0403 20.756 14.0631C20.9768 14.0972 21.1934 14.1437 21.4052 14.2018C21.7096 14.2853 22.0281 14.03 22.0099 13.7148C22.003 13.5972 21.9996 13.4795 21.9996 13.3618C21.9996 11.3831 22.9775 9.36804 24.5431 8.32384L24.8067 8.14803C24.9411 8.0584 25.1162 8.0584 25.2506 8.14803L25.5142 8.32384C27.0798 9.36804 28.0577 11.3831 28.0577 13.3618C28.0577 13.4795 28.0542 13.5972 28.0474 13.7148C28.0291 14.03 28.3476 14.2853 28.652 14.2018C28.8639 14.1437 29.0805 14.0972 29.3012 14.0631C29.4489 14.0403 29.5985 14.023 29.7496 14.0115C29.8975 14.0002 30.047 13.9945 30.1977 13.9945C30.2428 13.9945 30.2883 13.9934 30.3369 13.9922L30.3418 13.992C30.4345 13.9897 30.5396 13.9871 30.6459 13.9952C30.7653 14.0043 30.8576 14.1038 30.8576 14.2236V24.9973C30.8576 27.7299 28.9789 30.0233 26.4431 30.6557C26.2566 30.7023 26.1193 30.8659 26.1193 31.0581V35.6C26.1193 35.8209 25.9402 36 25.7193 36H24.338C24.1171 36 23.938 35.8209 23.938 35.6V31.0581C23.938 30.8659 23.8007 30.7023 23.6142 30.6558C22.0559 30.2671 20.7457 29.2512 19.9672 27.8916C19.768 27.5437 19.0896 27.5437 18.8904 27.8916C18.1119 29.2512 16.8017 30.2671 15.2434 30.6558C15.0569 30.7023 14.9196 30.8659 14.9196 31.0581V35.6C14.9196 35.8209 14.7405 36 14.5196 36H13.1383C12.9174 36 12.7383 35.8209 12.7383 35.6V31.0581C12.7383 30.8659 12.601 30.7023 12.4145 30.6557C9.87866 30.0233 8 27.7299 8 24.9973V14.2236C8 14.1038 8.09229 14.0043 8.21174 13.9952C8.31799 13.9871 8.42308 13.9897 8.51578 13.992L8.52067 13.9922C8.56931 13.9934 8.61477 13.9945 8.65989 13.9945C8.81063 13.9945 8.96008 14.0002 9.10803 14.0115C9.25914 14.023 9.40866 14.0403 9.55638 14.0631C9.7771 14.0972 9.99373 14.1437 10.2056 14.2018C10.51 14.2853 10.8285 14.03 10.8102 13.7148C10.8034 13.5972 10.7999 13.4795 10.7999 13.3618C10.7999 11.3831 11.7778 9.36804 13.3434 8.32384L13.607 8.14803ZM11.1488 14.5513C11.1681 14.6476 11.1896 14.7434 11.2134 14.8387C11.1263 14.794 11.0379 14.7514 10.9482 14.7112C10.5007 14.5105 10.022 14.3669 9.5214 14.2895C9.3795 14.2676 9.23585 14.251 9.09064 14.24C8.94848 14.2291 8.80482 14.2236 8.65989 14.2236C8.61145 14.2236 8.56315 14.2224 8.515 14.2212L8.51493 14.2212C8.35367 14.2172 8.22913 14.3483 8.22913 14.5096V24.9973C8.22913 27.6796 10.1135 29.9217 12.6301 30.4709C12.8229 30.5129 12.9675 30.6793 12.9675 30.8766V35.3709C12.9675 35.5918 13.1465 35.7709 13.3675 35.7709H14.2905C14.5114 35.7709 14.6905 35.5918 14.6905 35.3709V30.5336C16.9984 30.1771 18.8411 28.4108 19.3119 26.1417C19.3885 25.7722 19.4288 25.3894 19.4288 24.9973C19.4288 25.3894 19.4691 25.7722 19.5457 26.1417C20.0165 28.4108 21.8592 30.1771 24.1671 30.5336V35.3709C24.1671 35.5918 24.3462 35.7709 24.5671 35.7709H25.4901C25.7111 35.7709 25.8901 35.5918 25.8901 35.3709V30.8766C25.8901 30.6793 26.0347 30.5129 26.2275 30.4709C28.7441 29.9217 30.6285 27.6796 30.6285 24.9973V14.5096C30.6285 14.3483 30.5039 14.2172 30.3427 14.2212L30.3426 14.2212C30.2944 14.2224 30.2462 14.2236 30.1977 14.2236C30.0528 14.2236 29.9091 14.2291 29.767 14.24C29.6218 14.251 29.4781 14.2676 29.3362 14.2895C28.8356 14.3669 28.3569 14.5105 27.9094 14.7112C27.8197 14.7514 27.7313 14.794 27.6442 14.8387C27.6679 14.7434 27.6895 14.6476 27.7088 14.5514C27.7874 14.1595 27.8285 13.7601 27.8285 13.3618C27.8285 11.4497 26.881 9.51089 25.387 8.51446L25.2506 8.42345C25.1162 8.33381 24.9411 8.33381 24.8067 8.42345L24.6702 8.51446C23.1762 9.51089 22.2287 11.4497 22.2287 13.3618C22.2287 13.7601 22.2698 14.1595 22.3484 14.5514C22.3677 14.6476 22.3893 14.7434 22.4131 14.8387C22.326 14.794 22.2376 14.7514 22.1479 14.7112C21.7003 14.5105 21.2216 14.3669 20.7211 14.2895C20.5792 14.2676 20.4355 14.251 20.2903 14.24C20.1481 14.2291 20.0045 14.2236 19.8596 14.2236C19.8111 14.2236 19.7628 14.2224 19.7147 14.2212L19.7146 14.2212C19.629 14.2191 19.5438 14.2169 19.4592 14.2216C19.4389 14.2228 19.4187 14.2228 19.3984 14.2216C19.3138 14.2169 19.2286 14.2191 19.143 14.2212L19.1429 14.2212C19.0948 14.2224 19.0465 14.2236 18.998 14.2236C18.8531 14.2236 18.7095 14.2291 18.5673 14.24C18.4221 14.251 18.2784 14.2676 18.1365 14.2895C17.636 14.3669 17.1573 14.5105 16.7097 14.7112C16.62 14.7514 16.5316 14.794 16.4445 14.8387C16.4683 14.7434 16.4899 14.6476 16.5092 14.5514C16.5878 14.1595 16.6289 13.7601 16.6289 13.3618C16.6289 11.4497 15.6814 9.51089 14.1874 8.51446L14.0509 8.42345C13.9165 8.33381 13.7414 8.33381 13.607 8.42345L13.4706 8.51446C11.9766 9.51089 11.029 11.4497 11.029 13.3618C11.029 13.7601 11.0702 14.1595 11.1488 14.5513ZM18.1153 16.8093C18.1293 16.6676 18.1365 16.5238 18.1365 16.3783V15.6026C18.0594 15.6183 17.983 15.636 17.9074 15.6558C16.0565 16.1389 14.6905 17.8228 14.6905 19.8259V20.6016C14.7676 20.5859 14.844 20.5682 14.9196 20.5485C15.4679 20.4053 15.9736 20.1569 16.4139 19.8259C16.8775 19.4775 17.2685 19.0376 17.5603 18.5331C17.6406 18.3941 17.7134 18.2503 17.7781 18.1021C17.9539 17.6995 18.07 17.2648 18.1153 16.8093ZM14.9196 19.8259C14.9196 20.0699 15.1527 20.2468 15.3784 20.154C15.7003 20.0216 16.0017 19.8491 16.2762 19.6428C16.7153 19.3127 17.0857 18.8961 17.3619 18.4184C17.438 18.2868 17.5069 18.1507 17.5681 18.0104C17.7345 17.6294 17.8444 17.218 17.8873 16.7867C17.9006 16.6524 17.9074 16.5162 17.9074 16.3783C17.9074 16.1343 17.6742 15.9575 17.4485 16.0503C15.9646 16.6605 14.9196 18.1213 14.9196 19.8259ZM9.87984 18.1021L10.0898 18.0104C10.1511 18.1507 10.22 18.2868 10.2961 18.4184C10.5723 18.8961 10.9426 19.3127 11.3817 19.6428L11.2441 19.8259C10.7805 19.4775 10.3894 19.0376 10.0977 18.5331C10.0174 18.3941 9.94456 18.2503 9.87984 18.1021ZM9.54267 16.8093C9.58788 17.2648 9.70401 17.6995 9.87984 18.1021L10.0898 18.0104C9.92341 17.6294 9.81349 17.218 9.77068 16.7867C9.75735 16.6524 9.75053 16.5162 9.75053 16.3784C9.75053 16.1343 9.98373 15.9575 10.2094 16.0503C11.6934 16.6606 12.7383 18.1213 12.7383 19.8259C12.7383 20.0699 12.5052 20.2468 12.2795 20.154C11.9576 20.0216 11.6563 19.8491 11.3817 19.6428L11.2441 19.8259C11.6843 20.1569 12.19 20.4053 12.7383 20.5485C12.8139 20.5682 12.8903 20.5859 12.9675 20.6016V19.8259C12.9675 17.8228 11.6014 16.1389 9.75053 15.6558C9.67494 15.636 9.59854 15.6183 9.5214 15.6026L9.5214 16.3784C9.5214 16.5238 9.5286 16.6676 9.54267 16.8093ZM28.9778 18.1021L28.7678 18.0104C28.9342 17.6294 29.0441 17.218 29.0869 16.7867C29.1002 16.6524 29.1071 16.5162 29.1071 16.3783C29.1071 16.1343 28.8739 15.9575 28.6482 16.0503C27.1642 16.6605 26.1193 18.1213 26.1193 19.8259C26.1193 20.0699 26.3524 20.2468 26.5781 20.154C26.9 20.0216 27.2013 19.8491 27.4759 19.6428L27.6135 19.8259C27.1733 20.1569 26.6676 20.4053 26.1193 20.5485C26.0437 20.5682 25.9673 20.5859 25.8901 20.6016V19.8259C25.8901 17.8228 27.2562 16.1389 29.1071 15.6558C29.1827 15.636 29.2591 15.6183 29.3362 15.6026V16.3783C29.3362 16.5238 29.329 16.6676 29.3149 16.8093C29.2697 17.2648 29.1536 17.6995 28.9778 18.1021ZM28.9778 18.1021L28.7678 18.0104C28.7065 18.1507 28.6376 18.2868 28.5616 18.4184C28.2853 18.8961 27.915 19.3127 27.4759 19.6428L27.6135 19.8259C28.0771 19.4775 28.4682 19.0376 28.7599 18.5331C28.8403 18.3941 28.9131 18.2503 28.9778 18.1021ZM13.5622 16.2467C13.7011 16.4177 13.9568 16.4177 14.0957 16.2467C14.7102 15.4898 15.1075 14.4333 15.1075 13.3618C15.1075 12.2899 14.71 11.2335 14.0957 10.4769C13.9568 10.3058 13.7011 10.3058 13.5622 10.4769C12.9479 11.2335 12.5504 12.2899 12.5504 13.3618C12.5504 14.4333 12.9478 15.4898 13.5622 16.2467ZM13.829 16.8093C13.7952 16.8093 13.7626 16.7968 13.738 16.7735C12.8899 15.9717 12.3213 14.6765 12.3213 13.3618C12.3213 12.1327 12.8182 10.9208 13.5757 10.1131C13.7138 9.96583 13.9442 9.96583 14.0822 10.1131C14.8398 10.9208 15.3366 12.1327 15.3366 13.3618C15.3366 14.6765 14.768 15.9717 13.9199 16.7735C13.8953 16.7968 13.8628 16.8093 13.829 16.8093ZM14.6905 24.911C14.7676 24.8954 14.844 24.8777 14.9196 24.8579C16.7705 24.3748 18.1365 22.6909 18.1365 20.6878V19.9583C18.0628 20.047 17.9864 20.1334 17.9074 20.2173C17.0722 21.105 15.9507 21.7201 14.6905 21.9147V24.911ZM14.9196 24.0948C14.9196 24.3592 15.1724 24.5508 15.4159 24.4478C16.88 23.8285 17.9074 22.378 17.9074 20.6878C17.9074 20.6345 17.8429 20.6072 17.8039 20.6436C17.0934 21.3065 16.2169 21.7941 15.2432 22.0369C15.0567 22.0834 14.9196 22.247 14.9196 22.4392V24.0948ZM12.7383 22.4392C12.7383 22.247 12.6012 22.0834 12.4147 22.0369C11.441 21.7941 10.5645 21.3065 9.85401 20.6436C9.81504 20.6072 9.75053 20.6345 9.75053 20.6878C9.75053 22.378 10.7779 23.8285 12.242 24.4478C12.4855 24.5508 12.7383 24.3592 12.7383 24.0948V22.4392ZM12.9675 21.9147C11.7072 21.7201 10.5857 21.105 9.75053 20.2173C9.67155 20.1334 9.59513 20.047 9.5214 19.9583V20.6878C9.5214 22.6909 10.8874 24.3748 12.7383 24.8579C12.8139 24.8777 12.8903 24.8954 12.9675 24.911V21.9147ZM12.7383 26.7486C12.7383 26.5564 12.6012 26.3928 12.4147 26.3463C11.441 26.1035 10.5645 25.616 9.85402 24.953C9.81504 24.9167 9.75053 24.9439 9.75053 24.9973C9.75053 26.6875 10.7779 28.138 12.242 28.7572C12.4855 28.8602 12.7383 28.6687 12.7383 28.4043V26.7486ZM12.9675 26.2242C11.7072 26.0295 10.5857 25.4145 9.75053 24.5268C9.67155 24.4428 9.59513 24.3564 9.5214 24.2677V24.9973C9.5214 27.0003 10.8874 28.6842 12.7383 29.1674C12.8139 29.1871 12.8903 29.2048 12.9675 29.2205V26.2242ZM14.6905 29.2205C14.7676 29.2048 14.844 29.1871 14.9196 29.1674C16.7705 28.6842 18.1365 27.0003 18.1365 24.9973V24.2677C18.0628 24.3564 17.9864 24.4428 17.9074 24.5268C17.0722 25.4145 15.9507 26.0295 14.6905 26.2242V29.2205ZM17.9074 24.9973C17.9074 24.9439 17.8429 24.9167 17.8039 24.953C17.0934 25.616 16.2169 26.1035 15.2432 26.3463C15.0567 26.3928 14.9196 26.5564 14.9196 26.7486V28.4043C14.9196 28.6687 15.1724 28.8602 15.4159 28.7572C16.88 28.138 17.9074 26.6875 17.9074 24.9973ZM24.7619 16.2467C24.9008 16.4177 25.1565 16.4177 25.2953 16.2467C25.9098 15.4898 26.3072 14.4333 26.3072 13.3618C26.3072 12.2899 25.9096 11.2335 25.2953 10.4769C25.1565 10.3058 24.9008 10.3058 24.7619 10.4769C24.1476 11.2335 23.7501 12.2899 23.7501 13.3618C23.7501 14.4333 24.1474 15.4898 24.7619 16.2467ZM25.0286 16.8093C24.9948 16.8093 24.9623 16.7968 24.9377 16.7735C24.0896 15.9717 23.521 14.6765 23.521 13.3618C23.521 12.1327 24.0178 10.9208 24.7754 10.1131C24.9134 9.96583 25.1438 9.96583 25.2819 10.1131C26.0394 10.9208 26.5363 12.1327 26.5363 13.3618C26.5363 14.6765 25.9677 15.9717 25.1196 16.7735C25.095 16.7968 25.0624 16.8093 25.0286 16.8093ZM25.8901 24.911C25.9673 24.8954 26.0437 24.8777 26.1193 24.8579C27.9702 24.3748 29.3362 22.6909 29.3362 20.6878V19.9583C29.2625 20.047 29.186 20.1334 29.1071 20.2173C28.2719 21.105 27.1504 21.7201 25.8901 21.9147V24.911ZM26.1193 24.0948C26.1193 24.3592 26.372 24.5508 26.6156 24.4478C28.0797 23.8285 29.1071 22.3781 29.1071 20.6878C29.1071 20.6345 29.0426 20.6072 29.0036 20.6436C28.2931 21.3065 27.4165 21.7941 26.4429 22.0369C26.2564 22.0834 26.1193 22.247 26.1193 22.4392V24.0948ZM23.938 22.4392C23.938 22.247 23.8009 22.0834 23.6144 22.0369C22.6407 21.7941 21.7642 21.3065 21.0537 20.6436C21.0147 20.6072 20.9502 20.6345 20.9502 20.6878C20.9502 22.3781 21.9776 23.8285 23.4417 24.4478C23.6852 24.5508 23.938 24.3592 23.938 24.0948L23.938 22.4392ZM24.1671 21.9147C22.9069 21.7201 21.7854 21.105 20.9502 20.2173C20.8712 20.1334 20.7948 20.047 20.7211 19.9583V20.6878C20.7211 22.6909 22.0871 24.3748 23.938 24.8579C24.0136 24.8777 24.09 24.8954 24.1671 24.911L24.1671 21.9147ZM23.938 26.7486C23.938 26.5564 23.8009 26.3928 23.6144 26.3463C22.6407 26.1035 21.7642 25.616 21.0537 24.953C21.0147 24.9167 20.9502 24.9439 20.9502 24.9973C20.9502 26.6875 21.9776 28.138 23.4417 28.7572C23.6852 28.8602 23.938 28.6687 23.938 28.4043V26.7486ZM24.1671 26.2242C22.9069 26.0295 21.7854 25.4145 20.9502 24.5268C20.8712 24.4428 20.7948 24.3564 20.7211 24.2677V24.9973C20.7211 27.0003 22.0871 28.6842 23.938 29.1674C24.0136 29.1871 24.09 29.2048 24.1671 29.2205V26.2242ZM25.8901 29.2205C25.9673 29.2048 26.0437 29.1871 26.1193 29.1674C27.9702 28.6842 29.3362 27.0003 29.3362 24.9973V24.2677C29.2625 24.3564 29.186 24.4428 29.1071 24.5268C28.2719 25.4145 27.1504 26.0295 25.8901 26.2242V29.2205ZM29.1071 24.9973C29.1071 24.9439 29.0426 24.9167 29.0036 24.953C28.2931 25.616 27.4165 26.1035 26.4429 26.3463C26.2564 26.3928 26.1193 26.5564 26.1193 26.7486V28.4043C26.1193 28.6687 26.372 28.8602 26.6156 28.7572C28.0797 28.138 29.1071 26.6875 29.1071 24.9973ZM22.5814 19.6428L22.4437 19.8259C21.9801 19.4775 21.5891 19.0376 21.2974 18.5331C21.217 18.3941 21.1442 18.2503 21.0795 18.1021C20.9037 17.6995 20.7875 17.2648 20.7423 16.8093C20.7283 16.6676 20.7211 16.5238 20.7211 16.3784V15.6026C20.7982 15.6183 20.8746 15.636 20.9502 15.6558C22.8011 16.1389 24.1671 17.8228 24.1671 19.8259V20.6016C24.09 20.5859 24.0136 20.5682 23.938 20.5485C23.3897 20.4053 22.884 20.1569 22.4437 19.8259L22.5814 19.6428C22.8559 19.8491 23.1573 20.0216 23.4792 20.154C23.7049 20.2468 23.938 20.0699 23.938 19.8259C23.938 18.1213 22.8931 16.6606 21.4091 16.0503C21.1834 15.9575 20.9502 16.1343 20.9502 16.3784C20.9502 16.5162 20.957 16.6524 20.9703 16.7867C21.0132 17.218 21.1231 17.6294 21.2895 18.0104C21.3507 18.1507 21.4197 18.2868 21.4957 18.4184C21.772 18.8961 22.1423 19.3127 22.5814 19.6428Z" fill="#5C410A"/>
<path d="M38.7923 21V12.6H40.8323V21H38.7923ZM39.6803 17.832V16.128H44.6603V17.832H39.6803ZM39.7403 14.4V12.6H45.1523V14.4H39.7403ZM51.7108 21.12C51.0068 21.12 50.3668 21.012 49.7908 20.796C49.2228 20.58 48.7228 20.276 48.2908 19.884C47.8668 19.484 47.5388 19.02 47.3068 18.492C47.0748 17.964 46.9588 17.388 46.9588 16.764C46.9588 16.14 47.0748 15.564 47.3068 15.036C47.5388 14.508 47.8668 14.048 48.2908 13.656C48.7228 13.256 49.2228 12.948 49.7908 12.732C50.3668 12.516 51.0028 12.408 51.6988 12.408C52.3868 12.408 53.0188 12.516 53.5948 12.732C54.1708 12.948 54.6708 13.256 55.0948 13.656C55.5188 14.048 55.8468 14.508 56.0788 15.036C56.3108 15.564 56.4268 16.14 56.4268 16.764C56.4268 17.38 56.3108 17.956 56.0788 18.492C55.8468 19.02 55.5188 19.484 55.0948 19.884C54.6708 20.276 54.1708 20.58 53.5948 20.796C53.0188 21.012 52.3908 21.12 51.7108 21.12ZM51.6988 19.2C52.0828 19.2 52.4348 19.14 52.7548 19.02C53.0828 18.9 53.3668 18.732 53.6068 18.516C53.8468 18.292 54.0308 18.032 54.1588 17.736C54.2868 17.44 54.3508 17.116 54.3508 16.764C54.3508 16.412 54.2868 16.088 54.1588 15.792C54.0308 15.496 53.8468 15.24 53.6068 15.024C53.3668 14.8 53.0828 14.628 52.7548 14.508C52.4348 14.388 52.0828 14.328 51.6988 14.328C51.3148 14.328 50.9588 14.388 50.6308 14.508C50.3108 14.628 50.0268 14.8 49.7788 15.024C49.5388 15.248 49.3548 15.508 49.2268 15.804C49.1068 16.1 49.0468 16.42 49.0468 16.764C49.0468 17.116 49.1068 17.44 49.2268 17.736C49.3548 18.032 49.5388 18.292 49.7788 18.516C50.0268 18.732 50.3108 18.9 50.6308 19.02C50.9588 19.14 51.3148 19.2 51.6988 19.2ZM62.9959 21.12C62.2919 21.12 61.6519 21.012 61.0759 20.796C60.5079 20.58 60.0079 20.276 59.5759 19.884C59.1519 19.484 58.8239 19.02 58.5919 18.492C58.3599 17.964 58.2439 17.388 58.2439 16.764C58.2439 16.14 58.3599 15.564 58.5919 15.036C58.8239 14.508 59.1519 14.048 59.5759 13.656C60.0079 13.256 60.5079 12.948 61.0759 12.732C61.6519 12.516 62.2879 12.408 62.9839 12.408C63.6719 12.408 64.3039 12.516 64.8799 12.732C65.4559 12.948 65.9559 13.256 66.3799 13.656C66.8039 14.048 67.1319 14.508 67.3639 15.036C67.5959 15.564 67.7119 16.14 67.7119 16.764C67.7119 17.38 67.5959 17.956 67.3639 18.492C67.1319 19.02 66.8039 19.484 66.3799 19.884C65.9559 20.276 65.4559 20.58 64.8799 20.796C64.3039 21.012 63.6759 21.12 62.9959 21.12ZM62.9839 19.2C63.3679 19.2 63.7199 19.14 64.0399 19.02C64.3679 18.9 64.6519 18.732 64.8919 18.516C65.1319 18.292 65.3159 18.032 65.4439 17.736C65.5719 17.44 65.6359 17.116 65.6359 16.764C65.6359 16.412 65.5719 16.088 65.4439 15.792C65.3159 15.496 65.1319 15.24 64.8919 15.024C64.6519 14.8 64.3679 14.628 64.0399 14.508C63.7199 14.388 63.3679 14.328 62.9839 14.328C62.5999 14.328 62.2439 14.388 61.9159 14.508C61.5959 14.628 61.3119 14.8 61.0639 15.024C60.8239 15.248 60.6399 15.508 60.5119 15.804C60.3919 16.1 60.3319 16.42 60.3319 16.764C60.3319 17.116 60.3919 17.44 60.5119 17.736C60.6399 18.032 60.8239 18.292 61.0639 18.516C61.3119 18.732 61.5959 18.9 61.9159 19.02C62.2439 19.14 62.5999 19.2 62.9839 19.2ZM70.0931 21V12.6H73.9931C74.6731 12.6 75.2891 12.708 75.8411 12.924C76.3931 13.132 76.8651 13.428 77.2571 13.812C77.6571 14.196 77.9611 14.644 78.1691 15.156C78.3771 15.66 78.4811 16.208 78.4811 16.8C78.4811 17.4 78.3771 17.956 78.1691 18.468C77.9611 18.98 77.6571 19.424 77.2571 19.8C76.8651 20.176 76.3931 20.472 75.8411 20.688C75.2891 20.896 74.6731 21 73.9931 21H70.0931ZM72.1331 19.608L71.8571 19.2H73.9331C74.3331 19.2 74.6851 19.14 74.9891 19.02C75.2931 18.892 75.5451 18.72 75.7451 18.504C75.9531 18.288 76.1131 18.036 76.2251 17.748C76.3371 17.46 76.3931 17.144 76.3931 16.8C76.3931 16.464 76.3371 16.152 76.2251 15.864C76.1131 15.568 75.9531 15.312 75.7451 15.096C75.5451 14.88 75.2931 14.712 74.9891 14.592C74.6851 14.464 74.3331 14.4 73.9331 14.4H71.8211L72.1331 14.016V19.608ZM40.7567 32V25.4H37.9247V23.6H45.6887V25.4H42.7967V32H40.7567ZM49.5582 32L46.8702 23.6H48.9702L50.2902 27.884C50.3462 28.076 50.3982 28.276 50.4462 28.484C50.5022 28.684 50.5502 28.892 50.5902 29.108C50.6382 29.316 50.6782 29.512 50.7102 29.696C50.7422 29.88 50.7662 30.032 50.7822 30.152H50.4462C50.4942 29.888 50.5462 29.632 50.6022 29.384C50.6582 29.136 50.7182 28.888 50.7822 28.64C50.8542 28.392 50.9342 28.144 51.0222 27.896L52.2942 24.692H53.9502L55.1982 27.884C55.3022 28.156 55.3942 28.424 55.4742 28.688C55.5622 28.952 55.6342 29.204 55.6902 29.444C55.7462 29.676 55.7822 29.896 55.7982 30.104L55.4982 30.14C55.5142 30.004 55.5302 29.868 55.5462 29.732C55.5622 29.588 55.5822 29.44 55.6062 29.288C55.6302 29.136 55.6582 28.984 55.6902 28.832C55.7222 28.68 55.7582 28.524 55.7982 28.364C55.8462 28.196 55.8942 28.028 55.9422 27.86L57.3462 23.6H59.3742L56.5422 32H54.9822L52.9062 27.008L53.1822 27.032L51.2142 32H49.5582ZM61.2159 32V30.248H62.9679V25.352H61.2159V23.6H66.7719V25.352H65.0079V30.248H66.7719V32H61.2159ZM69.6888 32V23.6H71.5608L76.6368 29.6L76.2888 29.54C76.2408 29.26 76.2048 28.992 76.1808 28.736C76.1568 28.48 76.1328 28.232 76.1088 27.992C76.0928 27.752 76.0768 27.512 76.0608 27.272C76.0528 27.032 76.0488 26.78 76.0488 26.516C76.0488 26.252 76.0488 25.972 76.0488 25.676V23.6H78.0288V32H76.1328L70.8648 25.808L71.4288 25.892C71.4528 26.172 71.4768 26.424 71.5008 26.648C71.5328 26.872 71.5568 27.084 71.5728 27.284C71.5968 27.476 71.6128 27.672 71.6208 27.872C71.6368 28.064 71.6488 28.268 71.6568 28.484C71.6648 28.7 71.6688 28.936 71.6688 29.192V32H69.6888Z" fill="#5C410A"/>
</svg>
