<svg width="59" height="70" viewBox="0 0 59 70" fill="none" xmlns="http://www.w3.org/2000/svg">
<rect width="59" height="70" rx="4" fill="#FFBE2E"/>
<path fill-rule="evenodd" clip-rule="evenodd" d="M23.6782 8.42345C23.8126 8.33381 23.9877 8.33381 24.1221 8.42345L24.2586 8.51446C25.7526 9.51089 26.7001 11.4497 26.7001 13.3618C26.7001 13.8579 26.6363 14.3559 26.5157 14.8387C27.0375 14.5707 27.6069 14.3823 28.2078 14.2895C28.3497 14.2676 28.4933 14.251 28.6385 14.24C28.7807 14.2291 28.9243 14.2236 29.0693 14.2236C29.1177 14.2236 29.1661 14.2224 29.2142 14.2212C29.2999 14.2191 29.385 14.2169 29.4697 14.2216C29.4899 14.2228 29.5102 14.2228 29.5304 14.2216C29.615 14.2169 29.7002 14.2191 29.7858 14.2212C29.834 14.2224 29.8823 14.2236 29.9308 14.2236C30.0757 14.2236 30.2194 14.2291 30.3615 14.24C30.5067 14.251 30.6504 14.2676 30.7923 14.2895C31.3932 14.3823 31.9625 14.5707 32.4843 14.8387C32.3637 14.3559 32.2999 13.8579 32.2999 13.3618C32.2999 11.4497 33.2475 9.51089 34.7415 8.51446L34.8779 8.42345C35.0123 8.33381 35.1874 8.33381 35.3218 8.42345L35.4583 8.51446C36.9523 9.51089 37.8998 11.4497 37.8998 13.3618C37.8998 13.8579 37.836 14.3559 37.7154 14.8387C38.2372 14.5707 38.8065 14.3823 39.4074 14.2895C39.5493 14.2676 39.693 14.251 39.8382 14.24C39.9804 14.2291 40.124 14.2236 40.2689 14.2236C40.3174 14.2236 40.3657 14.2224 40.4139 14.2212C40.5752 14.2172 40.6997 14.3483 40.6997 14.5096V24.9973C40.6997 27.6796 38.8153 29.9217 36.2987 30.4709C36.1059 30.5129 35.9614 30.6793 35.9614 30.8766V35.3709C35.9614 35.5918 35.7823 35.7709 35.5614 35.7709H34.6383C34.4174 35.7709 34.2383 35.5918 34.2383 35.3709V30.5336C31.5547 30.1191 29.5 27.7982 29.5 24.9973C29.5 27.7982 27.4454 30.1191 24.7617 30.5336V35.3709C24.7617 35.5918 24.5826 35.7709 24.3617 35.7709H23.4387C23.2178 35.7709 23.0387 35.5918 23.0387 35.3709V30.8766C23.0387 30.6793 22.8942 30.5129 22.7014 30.4709C20.1847 29.9217 18.3004 27.6796 18.3004 24.9973V14.5096C18.3004 14.3483 18.4249 14.2172 18.5862 14.2212C18.6343 14.2224 18.6827 14.2236 18.7311 14.2236C18.8761 14.2236 19.0197 14.2291 19.1619 14.24C19.3071 14.251 19.4507 14.2676 19.5926 14.2895C20.1935 14.3823 20.7629 14.5707 21.2847 14.8387C21.1641 14.3559 21.1003 13.8579 21.1003 13.3618C21.1003 11.4497 22.0478 9.51089 23.5418 8.51446L23.6782 8.42345ZM25.4078 13.3618C25.4078 14.6765 24.8392 15.9717 23.9911 16.7735C23.9666 16.7968 23.934 16.8093 23.9002 16.8093C23.8664 16.8093 23.8338 16.7968 23.8092 16.7735C22.9611 15.9717 22.3925 14.6765 22.3925 13.3618C22.3925 12.1327 22.8894 10.9208 23.6469 10.1131C23.785 9.96583 24.0154 9.96583 24.1534 10.1131C24.911 10.9208 25.4078 12.1327 25.4078 13.3618ZM24.7617 21.9147V24.911C26.7279 24.5118 28.2078 22.7727 28.2078 20.6878V19.9583C27.3543 20.9849 26.1411 21.7017 24.7617 21.9147ZM23.0387 24.911V21.9147C21.6593 21.7017 20.4461 20.9849 19.5926 19.9583V20.6878C19.5926 22.7727 21.0725 24.5118 23.0387 24.911ZM23.0387 26.2242V29.2205C21.0725 28.8212 19.5926 27.0821 19.5926 24.9973V24.2677C20.4461 25.2944 21.6593 26.0111 23.0387 26.2242ZM24.7617 29.2205V26.2242C26.1411 26.0111 27.3543 25.2944 28.2078 24.2677V24.9973C28.2078 27.0821 26.7279 28.8212 24.7617 29.2205ZM27.6315 18.5331C27.7118 18.3941 27.7846 18.2503 27.8493 18.1021C28.0252 17.6995 28.1413 17.2648 28.1865 16.8093C28.2006 16.6676 28.2078 16.5238 28.2078 16.3783V15.6026C26.2416 16.0019 24.7617 17.741 24.7617 19.8259V20.6016C25.3984 20.4723 25.9841 20.2025 26.4851 19.8259C26.9487 19.4775 27.3398 19.0376 27.6315 18.5331ZM21.3153 19.8259C20.8517 19.4775 20.4607 19.0376 20.1689 18.5331C20.0886 18.3941 20.0158 18.2503 19.9511 18.1021C19.7752 17.6995 19.6591 17.2648 19.6139 16.8093C19.5998 16.6676 19.5926 16.5238 19.5926 16.3784L19.5926 15.6026C21.5588 16.0019 23.0387 17.741 23.0387 19.8259V20.6016C22.4019 20.4723 21.8163 20.2025 21.3153 19.8259ZM36.6075 13.3618C36.6075 14.6765 36.0389 15.9717 35.1908 16.7735C35.1662 16.7968 35.1337 16.8093 35.0999 16.8093C35.0661 16.8093 35.0335 16.7968 35.0089 16.7735C34.1608 15.9717 33.5922 14.6765 33.5922 13.3618C33.5922 12.1327 34.0891 10.9208 34.8466 10.1131C34.9847 9.96583 35.215 9.96583 35.3531 10.1131C36.1107 10.9208 36.6075 12.1327 36.6075 13.3618ZM35.9614 21.9147V24.911C37.9276 24.5118 39.4074 22.7727 39.4074 20.6878V19.9583C38.554 20.9849 37.3408 21.7017 35.9614 21.9147ZM34.2383 24.911L34.2383 21.9147C32.8589 21.7017 31.6457 20.9849 30.7923 19.9583V20.6878C30.7923 22.7727 32.2722 24.5118 34.2383 24.911ZM34.2383 26.2242V29.2205C32.2722 28.8212 30.7923 27.0821 30.7923 24.9973V24.2677C31.6457 25.2944 32.8589 26.0111 34.2383 26.2242ZM35.9614 29.2205V26.2242C37.3408 26.0111 38.554 25.2944 39.4074 24.2677V24.9973C39.4074 27.0821 37.9276 28.8212 35.9614 29.2205ZM38.8312 18.5331C38.9115 18.3941 38.9843 18.2503 39.049 18.1021C39.2248 17.6995 39.3409 17.2648 39.3862 16.8093C39.4002 16.6676 39.4074 16.5238 39.4074 16.3783V15.6026C37.4412 16.0019 35.9614 17.741 35.9614 19.8259V20.6016C36.5981 20.4723 37.1838 20.2025 37.6848 19.8259C38.1484 19.4775 38.5394 19.0376 38.8312 18.5331ZM32.5149 19.8259C32.0514 19.4775 31.6603 19.0376 31.3686 18.5331C31.2883 18.3941 31.2155 18.2503 31.1507 18.1021C30.9749 17.6995 30.8588 17.2648 30.8136 16.8093C30.7995 16.6676 30.7923 16.5238 30.7923 16.3784V15.6026C32.7585 16.0019 34.2383 17.741 34.2383 19.8259V20.6016C33.6016 20.4723 33.0159 20.2025 32.5149 19.8259Z" fill="#5C410A"/>
<path fill-rule="evenodd" clip-rule="evenodd" d="M23.6782 8.14803C23.8126 8.0584 23.9877 8.0584 24.1221 8.14803L24.3857 8.32384C25.9513 9.36804 26.9292 11.3831 26.9292 13.3618C26.9292 13.4795 26.9258 13.5972 26.919 13.7148C26.9007 14.03 27.2192 14.2853 27.5236 14.2018C27.7354 14.1437 27.9521 14.0972 28.1728 14.0631C28.3205 14.0403 28.47 14.023 28.6211 14.0115C28.7691 14.0002 28.9185 13.9945 29.0693 13.9945C29.1144 13.9945 29.1598 13.9934 29.2085 13.9922L29.2134 13.992C29.301 13.9898 29.3997 13.9874 29.5 13.9939C29.6003 13.9874 29.699 13.9898 29.7867 13.992L29.7916 13.9922C29.8402 13.9934 29.8857 13.9945 29.9308 13.9945C30.0815 13.9945 30.231 14.0002 30.3789 14.0115C30.53 14.023 30.6796 14.0403 30.8273 14.0631C31.048 14.0972 31.2646 14.1437 31.4765 14.2018C31.7809 14.2853 32.0994 14.03 32.0811 13.7148C32.0743 13.5972 32.0708 13.4795 32.0708 13.3618C32.0708 11.3831 33.0487 9.36804 34.6143 8.32384L34.8779 8.14803C35.0123 8.0584 35.1874 8.0584 35.3218 8.14803L35.5854 8.32384C37.151 9.36804 38.1289 11.3831 38.1289 13.3618C38.1289 13.4795 38.1255 13.5972 38.1186 13.7148C38.1004 14.03 38.4188 14.2853 38.7233 14.2018C38.9351 14.1437 39.1517 14.0972 39.3724 14.0631C39.5202 14.0403 39.6697 14.023 39.8208 14.0115C39.9687 14.0002 40.1182 13.9945 40.2689 13.9945C40.3141 13.9945 40.3595 13.9934 40.4082 13.9922L40.413 13.992C40.5057 13.9897 40.6108 13.9871 40.7171 13.9952C40.8365 14.0043 40.9288 14.1038 40.9288 14.2236V24.9973C40.9288 27.7299 39.0502 30.0233 36.5143 30.6557C36.3278 30.7023 36.1905 30.8659 36.1905 31.0581V35.6C36.1905 35.8209 36.0114 36 35.7905 36H34.4092C34.1883 36 34.0092 35.8209 34.0092 35.6V31.0581C34.0092 30.8659 33.872 30.7023 33.6855 30.6558C32.1271 30.2671 30.8169 29.2512 30.0384 27.8916C29.8392 27.5437 29.1609 27.5437 28.9616 27.8916C28.1831 29.2512 26.8729 30.2671 25.3146 30.6558C25.1281 30.7023 24.9908 30.8659 24.9908 31.0581V35.6C24.9908 35.8209 24.8117 36 24.5908 36H23.2095C22.9886 36 22.8095 35.8209 22.8095 35.6V31.0581C22.8095 30.8659 22.6722 30.7023 22.4858 30.6557C19.9499 30.0233 18.0712 27.7299 18.0712 24.9973V14.2236C18.0712 14.1038 18.1635 14.0043 18.283 13.9952C18.3892 13.9871 18.4943 13.9897 18.587 13.992L18.5919 13.9922C18.6405 13.9934 18.686 13.9945 18.7311 13.9945C18.8819 13.9945 19.0313 14.0002 19.1793 14.0115C19.3304 14.023 19.4799 14.0403 19.6276 14.0631C19.8483 14.0972 20.065 14.1437 20.2768 14.2018C20.5812 14.2853 20.8997 14.03 20.8814 13.7148C20.8746 13.5972 20.8711 13.4795 20.8711 13.3618C20.8711 11.3831 21.849 9.36804 23.4146 8.32384L23.6782 8.14803ZM21.22 14.5513C21.2393 14.6476 21.2609 14.7434 21.2847 14.8387C21.1976 14.794 21.1091 14.7514 21.0194 14.7112C20.5719 14.5105 20.0932 14.3669 19.5926 14.2895C19.4507 14.2676 19.3071 14.251 19.1619 14.24C19.0197 14.2291 18.8761 14.2236 18.7311 14.2236C18.6827 14.2236 18.6344 14.2224 18.5862 14.2212L18.5862 14.2212C18.4249 14.2172 18.3004 14.3483 18.3004 14.5096V24.9973C18.3004 27.6796 20.1847 29.9217 22.7014 30.4709C22.8942 30.5129 23.0387 30.6793 23.0387 30.8766V35.3709C23.0387 35.5918 23.2178 35.7709 23.4387 35.7709H24.3617C24.5826 35.7709 24.7617 35.5918 24.7617 35.3709V30.5336C27.0696 30.1771 28.9123 28.4108 29.3831 26.1417C29.4597 25.7722 29.5 25.3894 29.5 24.9973C29.5 25.3894 29.5403 25.7722 29.617 26.1417C30.0877 28.4108 31.9304 30.1771 34.2383 30.5336V35.3709C34.2383 35.5918 34.4174 35.7709 34.6383 35.7709H35.5614C35.7823 35.7709 35.9614 35.5918 35.9614 35.3709V30.8766C35.9614 30.6793 36.1059 30.5129 36.2987 30.4709C38.8153 29.9217 40.6997 27.6796 40.6997 24.9973V14.5096C40.6997 14.3483 40.5752 14.2172 40.4139 14.2212L40.4138 14.2212C40.3657 14.2224 40.3174 14.2236 40.2689 14.2236C40.124 14.2236 39.9804 14.2291 39.8382 14.24C39.693 14.251 39.5493 14.2676 39.4074 14.2895C38.9068 14.3669 38.4282 14.5105 37.9806 14.7112C37.8909 14.7514 37.8025 14.794 37.7154 14.8387C37.7392 14.7434 37.7608 14.6476 37.7801 14.5514C37.8587 14.1595 37.8998 13.7601 37.8998 13.3618C37.8998 11.4497 36.9523 9.51089 35.4583 8.51446L35.3218 8.42345C35.1874 8.33381 35.0123 8.33381 34.8779 8.42345L34.7415 8.51446C33.2475 9.51089 32.2999 11.4497 32.2999 13.3618C32.2999 13.7601 32.3411 14.1595 32.4197 14.5514C32.439 14.6476 32.4605 14.7434 32.4843 14.8387C32.3972 14.794 32.3088 14.7514 32.2191 14.7112C31.7716 14.5105 31.2929 14.3669 30.7923 14.2895C30.6504 14.2676 30.5067 14.251 30.3615 14.24C30.2194 14.2291 30.0757 14.2236 29.9308 14.2236C29.8823 14.2236 29.8341 14.2224 29.7859 14.2212L29.7858 14.2212C29.7002 14.2191 29.615 14.2169 29.5304 14.2216C29.5102 14.2228 29.4899 14.2228 29.4697 14.2216C29.385 14.2169 29.2999 14.2191 29.2142 14.2212L29.2141 14.2212C29.166 14.2224 29.1177 14.2236 29.0693 14.2236C28.9243 14.2236 28.7807 14.2291 28.6385 14.24C28.4933 14.251 28.3497 14.2676 28.2078 14.2895C27.7072 14.3669 27.2285 14.5105 26.7809 14.7112C26.6913 14.7514 26.6028 14.794 26.5157 14.8387C26.5395 14.7434 26.5611 14.6476 26.5804 14.5514C26.659 14.1595 26.7001 13.7601 26.7001 13.3618C26.7001 11.4497 25.7526 9.51089 24.2586 8.51446L24.1221 8.42345C23.9877 8.33381 23.8126 8.33381 23.6782 8.42345L23.5418 8.51446C22.0478 9.51089 21.1003 11.4497 21.1003 13.3618C21.1003 13.7601 21.1414 14.1595 21.22 14.5513ZM28.1865 16.8093C28.2006 16.6676 28.2078 16.5238 28.2078 16.3783V15.6026C28.1306 15.6183 28.0542 15.636 27.9786 15.6558C26.1277 16.1389 24.7617 17.8228 24.7617 19.8259V20.6016C24.8389 20.5859 24.9152 20.5682 24.9908 20.5485C25.5391 20.4053 26.0448 20.1569 26.4851 19.8259C26.9487 19.4775 27.3398 19.0376 27.6315 18.5331C27.7118 18.3941 27.7846 18.2503 27.8493 18.1021C28.0252 17.6995 28.1413 17.2648 28.1865 16.8093ZM24.9908 19.8259C24.9908 20.0699 25.224 20.2468 25.4496 20.154C25.7716 20.0216 26.0729 19.8491 26.3474 19.6428C26.7865 19.3127 27.1569 18.8961 27.4331 18.4184C27.5092 18.2868 27.5781 18.1507 27.6394 18.0104C27.8058 17.6294 27.9157 17.218 27.9585 16.7867C27.9718 16.6524 27.9786 16.5162 27.9786 16.3783C27.9786 16.1343 27.7454 15.9575 27.5198 16.0503C26.0358 16.6605 24.9908 18.1213 24.9908 19.8259ZM19.9511 18.1021L20.161 18.0104C20.2223 18.1507 20.2912 18.2868 20.3673 18.4184C20.6435 18.8961 21.0139 19.3127 21.4529 19.6428L21.3153 19.8259C20.8517 19.4775 20.4607 19.0376 20.1689 18.5331C20.0886 18.3941 20.0158 18.2503 19.9511 18.1021ZM19.6139 16.8093C19.6591 17.2648 19.7752 17.6995 19.9511 18.1021L20.161 18.0104C19.9946 17.6294 19.8847 17.218 19.8419 16.7867C19.8286 16.6524 19.8218 16.5162 19.8218 16.3784C19.8218 16.1343 20.055 15.9575 20.2806 16.0503C21.7646 16.6606 22.8096 18.1213 22.8096 19.8259C22.8096 20.0699 22.5764 20.2468 22.3507 20.154C22.0288 20.0216 21.7275 19.8491 21.4529 19.6428L21.3153 19.8259C21.7556 20.1569 22.2613 20.4053 22.8096 20.5485C22.8851 20.5682 22.9615 20.5859 23.0387 20.6016V19.8259C23.0387 17.8228 21.6727 16.1389 19.8218 15.6558C19.7462 15.636 19.6698 15.6183 19.5926 15.6026L19.5926 16.3784C19.5926 16.5238 19.5998 16.6676 19.6139 16.8093ZM39.049 18.1021L38.839 18.0104C39.0054 17.6294 39.1153 17.218 39.1581 16.7867C39.1715 16.6524 39.1783 16.5162 39.1783 16.3783C39.1783 16.1343 38.9451 15.9575 38.7194 16.0503C37.2355 16.6605 36.1905 18.1213 36.1905 19.8259C36.1905 20.0699 36.4236 20.2468 36.6493 20.154C36.9712 20.0216 37.2726 19.8491 37.5471 19.6428L37.6848 19.8259C37.2445 20.1569 36.7388 20.4053 36.1905 20.5485C36.1149 20.5682 36.0385 20.5859 35.9614 20.6016V19.8259C35.9614 17.8228 37.3274 16.1389 39.1783 15.6558C39.2539 15.636 39.3303 15.6183 39.4074 15.6026V16.3783C39.4074 16.5238 39.4002 16.6676 39.3862 16.8093C39.3409 17.2648 39.2248 17.6995 39.049 18.1021ZM39.049 18.1021L38.839 18.0104C38.7778 18.1507 38.7088 18.2868 38.6328 18.4184C38.3566 18.8961 37.9862 19.3127 37.5471 19.6428L37.6848 19.8259C38.1484 19.4775 38.5394 19.0376 38.8312 18.5331C38.9115 18.3941 38.9843 18.2503 39.049 18.1021ZM23.6335 16.2467C23.7724 16.4177 24.028 16.4177 24.1669 16.2467C24.7814 15.4898 25.1787 14.4333 25.1787 13.3618C25.1787 12.2899 24.7812 11.2335 24.1669 10.4769C24.028 10.3058 23.7724 10.3058 23.6335 10.4769C23.0192 11.2335 22.6217 12.2899 22.6217 13.3618C22.6217 14.4333 23.019 15.4898 23.6335 16.2467ZM23.9002 16.8093C23.8664 16.8093 23.8338 16.7968 23.8092 16.7735C22.9611 15.9717 22.3925 14.6765 22.3925 13.3618C22.3925 12.1327 22.8894 10.9208 23.6469 10.1131C23.785 9.96583 24.0154 9.96583 24.1534 10.1131C24.911 10.9208 25.4078 12.1327 25.4078 13.3618C25.4078 14.6765 24.8392 15.9717 23.9911 16.7735C23.9666 16.7968 23.934 16.8093 23.9002 16.8093ZM24.7617 24.911C24.8388 24.8954 24.9152 24.8777 24.9908 24.8579C26.8417 24.3748 28.2078 22.6909 28.2078 20.6878V19.9583C28.134 20.047 28.0576 20.1334 27.9786 20.2173C27.1434 21.105 26.0219 21.7201 24.7617 21.9147V24.911ZM24.9908 24.0948C24.9908 24.3592 25.2436 24.5508 25.4871 24.4478C26.9512 23.8285 27.9786 22.378 27.9786 20.6878C27.9786 20.6345 27.9141 20.6072 27.8751 20.6436C27.1647 21.3065 26.2881 21.7941 25.3145 22.0369C25.128 22.0834 24.9908 22.247 24.9908 22.4392V24.0948ZM22.8095 22.4392C22.8096 22.247 22.6724 22.0834 22.4859 22.0369C21.5123 21.7941 20.6357 21.3065 19.9252 20.6436C19.8863 20.6072 19.8218 20.6345 19.8218 20.6878C19.8218 22.378 20.8492 23.8285 22.3133 24.4478C22.5568 24.5508 22.8095 24.3592 22.8095 24.0948V22.4392ZM23.0387 21.9147C21.7784 21.7201 20.6569 21.105 19.8218 20.2173C19.7428 20.1334 19.6664 20.047 19.5926 19.9583V20.6878C19.5926 22.6909 20.9586 24.3748 22.8095 24.8579C22.8851 24.8777 22.9615 24.8954 23.0387 24.911V21.9147ZM22.8095 26.7486C22.8095 26.5564 22.6724 26.3928 22.4859 26.3463C21.5123 26.1035 20.6357 25.616 19.9252 24.953C19.8863 24.9167 19.8218 24.9439 19.8218 24.9973C19.8218 26.6875 20.8492 28.138 22.3133 28.7572C22.5568 28.8602 22.8095 28.6687 22.8095 28.4043V26.7486ZM23.0387 26.2242C21.7784 26.0295 20.6569 25.4145 19.8218 24.5268C19.7428 24.4428 19.6664 24.3564 19.5926 24.2677V24.9973C19.5926 27.0003 20.9586 28.6842 22.8095 29.1674C22.8851 29.1871 22.9615 29.2048 23.0387 29.2205V26.2242ZM24.7617 29.2205C24.8388 29.2048 24.9152 29.1871 24.9908 29.1674C26.8417 28.6842 28.2078 27.0003 28.2078 24.9973V24.2677C28.134 24.3564 28.0576 24.4428 27.9786 24.5268C27.1434 25.4145 26.0219 26.0295 24.7617 26.2242V29.2205ZM27.9786 24.9973C27.9786 24.9439 27.9141 24.9167 27.8751 24.953C27.1647 25.616 26.2881 26.1035 25.3145 26.3463C25.128 26.3928 24.9908 26.5564 24.9908 26.7486V28.4043C24.9908 28.6687 25.2436 28.8602 25.4871 28.7572C26.9512 28.138 27.9786 26.6875 27.9786 24.9973ZM34.8331 16.2467C34.972 16.4177 35.2277 16.4177 35.3666 16.2467C35.9811 15.4898 36.3784 14.4333 36.3784 13.3618C36.3784 12.2899 35.9809 11.2335 35.3666 10.4769C35.2277 10.3058 34.972 10.3058 34.8331 10.4769C34.2188 11.2335 33.8213 12.2899 33.8213 13.3618C33.8213 14.4333 34.2187 15.4898 34.8331 16.2467ZM35.0999 16.8093C35.0661 16.8093 35.0335 16.7968 35.0089 16.7735C34.1608 15.9717 33.5922 14.6765 33.5922 13.3618C33.5922 12.1327 34.0891 10.9208 34.8466 10.1131C34.9847 9.96583 35.215 9.96583 35.3531 10.1131C36.1107 10.9208 36.6075 12.1327 36.6075 13.3618C36.6075 14.6765 36.0389 15.9717 35.1908 16.7735C35.1662 16.7968 35.1337 16.8093 35.0999 16.8093ZM35.9614 24.911C36.0385 24.8954 36.1149 24.8777 36.1905 24.8579C38.0414 24.3748 39.4074 22.6909 39.4074 20.6878V19.9583C39.3337 20.047 39.2573 20.1334 39.1783 20.2173C38.3431 21.105 37.2216 21.7201 35.9614 21.9147V24.911ZM36.1905 24.0948C36.1905 24.3592 36.4433 24.5508 36.6868 24.4478C38.1509 23.8285 39.1783 22.3781 39.1783 20.6878C39.1783 20.6345 39.1138 20.6072 39.0748 20.6436C38.3643 21.3065 37.4878 21.7941 36.5141 22.0369C36.3276 22.0834 36.1905 22.247 36.1905 22.4392V24.0948ZM34.0092 22.4392C34.0092 22.247 33.8721 22.0834 33.6856 22.0369C32.7119 21.7941 31.8354 21.3065 31.1249 20.6436C31.0859 20.6072 31.0214 20.6345 31.0214 20.6878C31.0214 22.3781 32.0488 23.8285 33.5129 24.4478C33.7564 24.5508 34.0092 24.3592 34.0092 24.0948L34.0092 22.4392ZM34.2383 21.9147C32.9781 21.7201 31.8566 21.105 31.0214 20.2173C30.9424 20.1334 30.866 20.047 30.7923 19.9583V20.6878C30.7923 22.6909 32.1583 24.3748 34.0092 24.8579C34.0848 24.8777 34.1612 24.8954 34.2383 24.911L34.2383 21.9147ZM34.0092 26.7486C34.0092 26.5564 33.8721 26.3928 33.6856 26.3463C32.7119 26.1035 31.8354 25.616 31.1249 24.953C31.0859 24.9167 31.0214 24.9439 31.0214 24.9973C31.0214 26.6875 32.0488 28.138 33.5129 28.7572C33.7564 28.8602 34.0092 28.6687 34.0092 28.4043V26.7486ZM34.2383 26.2242C32.9781 26.0295 31.8566 25.4145 31.0214 24.5268C30.9424 24.4428 30.866 24.3564 30.7923 24.2677V24.9973C30.7923 27.0003 32.1583 28.6842 34.0092 29.1674C34.0848 29.1871 34.1612 29.2048 34.2383 29.2205V26.2242ZM35.9614 29.2205C36.0385 29.2048 36.1149 29.1871 36.1905 29.1674C38.0414 28.6842 39.4074 27.0003 39.4074 24.9973V24.2677C39.3337 24.3564 39.2573 24.4428 39.1783 24.5268C38.3431 25.4145 37.2216 26.0295 35.9614 26.2242V29.2205ZM39.1783 24.9973C39.1783 24.9439 39.1138 24.9167 39.0748 24.953C38.3643 25.616 37.4878 26.1035 36.5141 26.3463C36.3276 26.3928 36.1905 26.5564 36.1905 26.7486V28.4043C36.1905 28.6687 36.4433 28.8602 36.6868 28.7572C38.1509 28.138 39.1783 26.6875 39.1783 24.9973ZM32.6526 19.6428L32.5149 19.8259C32.0514 19.4775 31.6603 19.0376 31.3686 18.5331C31.2883 18.3941 31.2155 18.2503 31.1507 18.1021C30.9749 17.6995 30.8588 17.2648 30.8136 16.8093C30.7995 16.6676 30.7923 16.5238 30.7923 16.3784V15.6026C30.8694 15.6183 30.9458 15.636 31.0214 15.6558C32.8723 16.1389 34.2383 17.8228 34.2383 19.8259V20.6016C34.1612 20.5859 34.0848 20.5682 34.0092 20.5485C33.4609 20.4053 32.9552 20.1569 32.5149 19.8259L32.6526 19.6428C32.9272 19.8491 33.2285 20.0216 33.5504 20.154C33.7761 20.2468 34.0092 20.0699 34.0092 19.8259C34.0092 18.1213 32.9643 16.6606 31.4803 16.0503C31.2546 15.9575 31.0214 16.1343 31.0214 16.3784C31.0214 16.5162 31.0283 16.6524 31.0416 16.7867C31.0844 17.218 31.1943 17.6294 31.3607 18.0104C31.422 18.1507 31.4909 18.2868 31.5669 18.4184C31.8432 18.8961 32.2135 19.3127 32.6526 19.6428Z" fill="#5C410A"/>
<path d="M9.9347 50V41.6H11.9747V50H9.9347ZM10.8227 46.832V45.128H15.8027V46.832H10.8227ZM10.8827 43.4V41.6H16.2947V43.4H10.8827ZM22.8532 50.12C22.1492 50.12 21.5092 50.012 20.9332 49.796C20.3652 49.58 19.8652 49.276 19.4332 48.884C19.0092 48.484 18.6812 48.02 18.4492 47.492C18.2172 46.964 18.1012 46.388 18.1012 45.764C18.1012 45.14 18.2172 44.564 18.4492 44.036C18.6812 43.508 19.0092 43.048 19.4332 42.656C19.8652 42.256 20.3652 41.948 20.9332 41.732C21.5092 41.516 22.1452 41.408 22.8412 41.408C23.5292 41.408 24.1612 41.516 24.7372 41.732C25.3132 41.948 25.8132 42.256 26.2372 42.656C26.6612 43.048 26.9892 43.508 27.2212 44.036C27.4532 44.564 27.5692 45.14 27.5692 45.764C27.5692 46.38 27.4532 46.956 27.2212 47.492C26.9892 48.02 26.6612 48.484 26.2372 48.884C25.8132 49.276 25.3132 49.58 24.7372 49.796C24.1612 50.012 23.5332 50.12 22.8532 50.12ZM22.8412 48.2C23.2252 48.2 23.5772 48.14 23.8972 48.02C24.2252 47.9 24.5092 47.732 24.7492 47.516C24.9892 47.292 25.1732 47.032 25.3012 46.736C25.4292 46.44 25.4932 46.116 25.4932 45.764C25.4932 45.412 25.4292 45.088 25.3012 44.792C25.1732 44.496 24.9892 44.24 24.7492 44.024C24.5092 43.8 24.2252 43.628 23.8972 43.508C23.5772 43.388 23.2252 43.328 22.8412 43.328C22.4572 43.328 22.1012 43.388 21.7732 43.508C21.4532 43.628 21.1692 43.8 20.9212 44.024C20.6812 44.248 20.4972 44.508 20.3692 44.804C20.2492 45.1 20.1892 45.42 20.1892 45.764C20.1892 46.116 20.2492 46.44 20.3692 46.736C20.4972 47.032 20.6812 47.292 20.9212 47.516C21.1692 47.732 21.4532 47.9 21.7732 48.02C22.1012 48.14 22.4572 48.2 22.8412 48.2ZM34.1383 50.12C33.4343 50.12 32.7943 50.012 32.2183 49.796C31.6503 49.58 31.1503 49.276 30.7183 48.884C30.2943 48.484 29.9663 48.02 29.7343 47.492C29.5023 46.964 29.3863 46.388 29.3863 45.764C29.3863 45.14 29.5023 44.564 29.7343 44.036C29.9663 43.508 30.2943 43.048 30.7183 42.656C31.1503 42.256 31.6503 41.948 32.2183 41.732C32.7943 41.516 33.4303 41.408 34.1263 41.408C34.8143 41.408 35.4463 41.516 36.0223 41.732C36.5983 41.948 37.0983 42.256 37.5223 42.656C37.9463 43.048 38.2743 43.508 38.5063 44.036C38.7383 44.564 38.8543 45.14 38.8543 45.764C38.8543 46.38 38.7383 46.956 38.5063 47.492C38.2743 48.02 37.9463 48.484 37.5223 48.884C37.0983 49.276 36.5983 49.58 36.0223 49.796C35.4463 50.012 34.8183 50.12 34.1383 50.12ZM34.1263 48.2C34.5103 48.2 34.8623 48.14 35.1823 48.02C35.5103 47.9 35.7943 47.732 36.0343 47.516C36.2743 47.292 36.4583 47.032 36.5863 46.736C36.7143 46.44 36.7783 46.116 36.7783 45.764C36.7783 45.412 36.7143 45.088 36.5863 44.792C36.4583 44.496 36.2743 44.24 36.0343 44.024C35.7943 43.8 35.5103 43.628 35.1823 43.508C34.8623 43.388 34.5103 43.328 34.1263 43.328C33.7423 43.328 33.3863 43.388 33.0583 43.508C32.7383 43.628 32.4543 43.8 32.2063 44.024C31.9663 44.248 31.7823 44.508 31.6543 44.804C31.5343 45.1 31.4743 45.42 31.4743 45.764C31.4743 46.116 31.5343 46.44 31.6543 46.736C31.7823 47.032 31.9663 47.292 32.2063 47.516C32.4543 47.732 32.7383 47.9 33.0583 48.02C33.3863 48.14 33.7423 48.2 34.1263 48.2ZM41.2355 50V41.6H45.1355C45.8155 41.6 46.4315 41.708 46.9835 41.924C47.5355 42.132 48.0075 42.428 48.3995 42.812C48.7995 43.196 49.1035 43.644 49.3115 44.156C49.5195 44.66 49.6235 45.208 49.6235 45.8C49.6235 46.4 49.5195 46.956 49.3115 47.468C49.1035 47.98 48.7995 48.424 48.3995 48.8C48.0075 49.176 47.5355 49.472 46.9835 49.688C46.4315 49.896 45.8155 50 45.1355 50H41.2355ZM43.2755 48.608L42.9995 48.2H45.0755C45.4755 48.2 45.8275 48.14 46.1315 48.02C46.4355 47.892 46.6875 47.72 46.8875 47.504C47.0955 47.288 47.2555 47.036 47.3675 46.748C47.4795 46.46 47.5355 46.144 47.5355 45.8C47.5355 45.464 47.4795 45.152 47.3675 44.864C47.2555 44.568 47.0955 44.312 46.8875 44.096C46.6875 43.88 46.4355 43.712 46.1315 43.592C45.8275 43.464 45.4755 43.4 45.0755 43.4H42.9635L43.2755 43.016V48.608ZM11.8991 61V54.4H9.06709V52.6H16.8311V54.4H13.9391V61H11.8991ZM20.7006 61L18.0126 52.6H20.1126L21.4326 56.884C21.4886 57.076 21.5406 57.276 21.5886 57.484C21.6446 57.684 21.6926 57.892 21.7326 58.108C21.7806 58.316 21.8206 58.512 21.8526 58.696C21.8846 58.88 21.9086 59.032 21.9246 59.152H21.5886C21.6366 58.888 21.6886 58.632 21.7446 58.384C21.8006 58.136 21.8606 57.888 21.9246 57.64C21.9966 57.392 22.0766 57.144 22.1646 56.896L23.4366 53.692H25.0926L26.3406 56.884C26.4446 57.156 26.5366 57.424 26.6166 57.688C26.7046 57.952 26.7766 58.204 26.8326 58.444C26.8886 58.676 26.9246 58.896 26.9406 59.104L26.6406 59.14C26.6566 59.004 26.6726 58.868 26.6886 58.732C26.7046 58.588 26.7246 58.44 26.7486 58.288C26.7726 58.136 26.8006 57.984 26.8326 57.832C26.8646 57.68 26.9006 57.524 26.9406 57.364C26.9886 57.196 27.0366 57.028 27.0846 56.86L28.4886 52.6H30.5166L27.6846 61H26.1246L24.0486 56.008L24.3246 56.032L22.3566 61H20.7006ZM32.3583 61V59.248H34.1103V54.352H32.3583V52.6H37.9143V54.352H36.1503V59.248H37.9143V61H32.3583ZM40.8312 61V52.6H42.7032L47.7792 58.6L47.4312 58.54C47.3832 58.26 47.3472 57.992 47.3232 57.736C47.2992 57.48 47.2752 57.232 47.2512 56.992C47.2352 56.752 47.2192 56.512 47.2032 56.272C47.1952 56.032 47.1912 55.78 47.1912 55.516C47.1912 55.252 47.1912 54.972 47.1912 54.676V52.6H49.1712V61H47.2752L42.0072 54.808L42.5712 54.892C42.5952 55.172 42.6192 55.424 42.6432 55.648C42.6752 55.872 42.6992 56.084 42.7152 56.284C42.7392 56.476 42.7552 56.672 42.7632 56.872C42.7792 57.064 42.7912 57.268 42.7992 57.484C42.8072 57.7 42.8112 57.936 42.8112 58.192V61H40.8312Z" fill="#5C410A"/>
</svg>
